<svg width="40" height="40" viewBox="0 0 40 40" fill="none" xmlns="http://www.w3.org/2000/svg">
<g filter="url(#filter0_d_1_707)">
<circle cx="20" cy="16" r="16" fill="#D33AD6"/>
</g>
<path fill-rule="evenodd" clip-rule="evenodd" d="M22.9471 9.29571C22.777 9.2882 22.5958 9.31482 22.4036 9.37557C22.3075 9.40594 22.1522 9.44771 21.9378 9.50088C21.7381 9.54646 21.5903 9.58444 21.4941 9.61481C20.6586 9.79716 20.1743 9.90353 20.0412 9.93392C19.8267 9.94918 19.5125 10.0062 19.0984 10.1049C19.0555 10.1152 19.0146 10.1249 18.9757 10.1341C18.9691 10.166 18.9611 10.1986 18.9519 10.2318C18.8151 10.6609 18.6157 11.1558 18.3537 11.7166C18.1001 12.292 17.8965 12.7795 17.7429 13.1792C17.643 13.4723 17.5216 13.7611 17.3786 14.0456C17.3763 14.0581 17.3518 14.0989 17.3053 14.1679C17.2743 14.2139 17.2541 14.262 17.2446 14.3123C17.234 14.4275 17.1264 14.732 16.9216 15.2259C16.7311 15.6443 16.5673 16.0094 16.4304 16.3212C16.1147 16.9886 15.9456 17.3526 15.923 17.4133C15.867 17.5326 15.7658 17.7732 15.6194 18.1353C15.5456 18.2901 15.47 18.4837 15.3927 18.716C15.2594 19.0676 15.1334 19.4988 15.0147 20.0098L14.8276 20.7352C14.8181 20.7855 14.795 20.8787 14.7581 21.0147C14.732 21.153 14.7065 21.2587 14.6815 21.332C14.6518 21.4304 14.5965 21.5758 14.5155 21.7683C14.4369 21.9483 14.3953 22.0508 14.3905 22.0759L14.2888 22.3491C14.2457 22.3405 14.1931 22.3236 14.131 22.2982C14.1268 22.2965 14.1228 22.2949 14.1187 22.2933C14.1488 22.4282 14.1816 22.5651 14.2169 22.704C14.2483 22.8394 14.2539 22.9262 14.2337 22.9645C14.2221 23.0189 14.222 23.0759 14.2335 23.1355C14.2127 23.5159 14.1937 23.7469 14.1763 23.8286C14.1589 23.9103 14.1415 24.0205 14.124 24.1592C14.1065 24.2979 14.0891 24.4081 14.0717 24.4897C14.0688 24.5033 14.0717 24.5182 14.0803 24.5344L14.0716 24.5753C14.0109 24.7471 13.9818 24.9687 13.9843 25.2402C13.9783 25.3815 13.9709 25.5011 13.9621 25.5989C13.8817 25.5239 13.8372 25.4783 13.8286 25.4621C13.8085 25.4433 13.7798 25.4084 13.7425 25.3573L13.652 25.2729C13.5946 25.203 13.5444 25.1561 13.5013 25.1322C13.5619 25.0174 13.5493 24.7935 13.4635 24.4606C13.5729 24.3995 13.6535 24.3605 13.7053 24.3436C13.783 24.3182 13.8017 24.2582 13.7616 24.1637C13.753 24.1475 13.7344 24.1219 13.7057 24.087C13.6856 24.0682 13.6669 24.0427 13.6497 24.0103C13.6439 24.0375 13.6309 24.0703 13.6107 24.1085C13.5876 24.1604 13.5674 24.1987 13.5502 24.2233L13.5071 24.1709C13.4901 24.0245 13.4543 23.9381 13.3997 23.9116L13.3868 23.8873C13.43 23.7972 13.3999 23.7405 13.2964 23.7174C13.2188 23.6858 13.1701 23.6035 13.1501 23.4707C13.1134 23.0775 13.0792 22.8417 13.0477 22.7633C13.0391 22.7472 13.0363 22.7323 13.0392 22.7186C13.042 22.705 13.0392 22.6901 13.0306 22.6739L13.0349 22.6535C13.0239 22.3659 13.0113 22.142 12.9972 21.982C12.9631 21.6891 12.9318 21.4682 12.9033 21.3193C12.8947 21.3031 12.8933 21.2529 12.8992 21.1686C12.9051 21.0844 12.8951 21.018 12.8693 20.9694C12.855 20.9234 12.822 20.8804 12.7703 20.8403C12.7876 20.8157 12.8006 20.7829 12.8093 20.7421C12.8354 20.6196 12.8441 20.5502 12.8355 20.534C12.8269 20.5179 12.8111 20.4787 12.7882 20.4165C12.7624 20.368 12.7467 20.3288 12.741 20.299L12.767 20.1765C12.7815 20.1084 12.7845 20.0663 12.7759 20.0501C12.7702 20.0203 12.7688 19.9701 12.7718 19.8995C12.7719 19.8424 12.7648 19.7909 12.7505 19.745C12.7361 19.699 12.7089 19.6572 12.6687 19.6197C12.6601 19.6035 12.6572 19.5886 12.6601 19.575C12.6544 19.5452 12.653 19.5235 12.6559 19.5099C12.6479 19.1516 12.6367 18.9209 12.6225 18.8179C12.6541 18.8393 12.6713 18.8431 12.6742 18.8295C12.6886 18.8185 12.7002 18.7925 12.7089 18.7517L12.7176 18.7108C12.6687 18.7142 12.637 18.7499 12.6225 18.8179C12.6168 18.7881 12.6111 18.7298 12.6055 18.643C12.6114 18.5588 12.6072 18.4936 12.5929 18.4477C12.5729 18.3149 12.5889 18.2115 12.6408 18.1375C12.6927 18.0636 12.6986 17.9793 12.6585 17.8848C12.5868 17.7119 12.5713 17.5587 12.6117 17.4251C12.6146 17.4115 12.6132 17.3898 12.6075 17.36C12.5818 17.2544 12.5664 17.0157 12.5612 16.6438C12.5642 16.5731 12.566 16.3097 12.5667 15.8536C12.5726 15.7693 12.5728 15.6268 12.5674 15.4259C12.5706 15.2412 12.5708 15.0987 12.5681 14.9982C12.5654 14.8978 12.5728 14.7497 12.5903 14.554C12.5546 14.5691 12.5277 14.5841 12.5095 14.599C12.5185 13.8702 12.4972 12.8579 12.4002 12.0033C12.3223 12.0061 12.2445 11.981 12.1666 11.9278C12.063 11.8672 12.0075 11.7724 12 11.6435C12.0147 11.5222 12.0368 11.416 12.0664 11.325C12.1328 11.1961 12.1364 11.071 12.0772 10.9497C12.0328 10.8587 12.0623 10.7677 12.1658 10.6767C12.2397 10.6008 12.3579 10.5022 12.5205 10.3808C12.8902 10.1532 13.2376 9.99379 13.563 9.90266C13.6591 9.87229 13.7996 9.81915 13.9844 9.74324L14.4169 9.60657C14.5056 9.56103 14.5796 9.54204 14.6387 9.5496C14.7275 9.54198 15.1785 9.4053 15.9918 9.13955C16.1545 9.09398 16.4022 9.01426 16.7349 8.90038C17.0676 8.78649 17.3153 8.70677 17.4779 8.6612C17.6036 8.61565 17.977 8.52829 18.5981 8.39911C18.6795 8.37633 18.7867 8.34974 18.9198 8.31936C18.9937 8.28141 19.0491 8.26243 19.0861 8.26241C19.2784 8.27749 19.5446 8.23567 19.8847 8.13695C20.2396 8.03064 20.4873 7.96987 20.6278 7.95464C20.7313 7.93943 20.8829 7.90904 21.0826 7.86345L21.5484 7.79501C21.615 7.77981 21.7111 7.74944 21.8368 7.70389C21.9847 7.66591 22.0919 7.63933 22.1584 7.62413C23.3119 7.33549 24.1696 7.1228 24.7315 6.98607C24.8794 6.94809 25.1049 6.89871 25.4081 6.83791C25.7113 6.77712 25.9368 6.72774 26.0847 6.68976C27.0607 6.49218 27.7853 6.3478 28.2586 6.2566L29.0239 6.11978C29.3714 6.07413 29.6303 6.0361 29.8003 6.0057C29.8151 5.99811 29.8336 5.9981 29.8558 6.00567L29.9224 6.02839C29.9593 6.02837 29.9852 6.02457 30 6.01698C29.9632 6.24447 29.8782 6.43028 29.7452 6.5744L29.5789 6.74508C29.4533 6.82854 29.3388 6.99162 29.2354 7.2343C29.1763 7.4163 28.9842 7.64766 28.659 7.92835C28.5369 8.03186 28.3596 8.16863 28.1269 8.33866C28.2792 8.67771 28.3157 9.01245 28.2364 9.34291C28.221 9.35833 28.213 9.39722 28.2124 9.45957C28.1564 9.76969 28.1076 10.0385 28.0661 10.2661C27.5999 11.0136 26.5895 12.0653 25.6437 13.0497C25.1222 13.5926 24.6203 14.115 24.2401 14.5546C24.3009 14.3713 24.3092 14.2255 24.2652 14.1171L23.0873 15.5776C22.9333 15.763 22.7175 16.0569 22.4398 16.4592C22.147 16.8458 21.9311 17.1396 21.7923 17.3408C21.5609 17.6657 21.2526 18.0833 20.8673 18.5936C20.8209 18.671 20.6203 18.965 20.2654 19.4756L19.4331 20.5891C19.0632 21.084 18.4933 21.8105 17.7233 22.7687C17.6158 22.8767 17.4395 23.0229 17.1943 23.2073C17.2235 23.3323 17.1692 23.4331 17.0316 23.5095C16.9093 23.5706 16.848 23.6167 16.8477 23.6479C16.8007 23.7877 16.6559 23.8251 16.4132 23.7601C16.3659 23.9311 16.311 24.0942 16.2486 24.2494C16.1856 24.4669 16.0933 24.5751 15.9717 24.5738C15.9262 24.5577 15.8574 24.5959 15.7652 24.6885C15.7345 24.7193 15.7036 24.7657 15.6726 24.8278L15.5574 24.9434C15.3125 25.0967 15.1202 25.3207 14.9804 25.6153C14.8536 26.041 14.3669 26.4375 14.1182 26.64C14.0583 26.6888 14.0121 26.7265 13.9882 26.7504C13.8503 26.8581 13.6137 26.9413 13.2786 27C13.3563 26.8294 13.4259 26.7132 13.4874 26.6515C13.5338 26.574 13.603 26.4891 13.6952 26.3965L13.9256 26.1652C14.126 25.9023 14.2496 25.701 14.2966 25.5612C14.3443 25.359 14.4299 25.1651 14.5534 24.9794C14.6455 24.8868 14.8075 24.6625 15.0391 24.3065C15.2861 23.935 15.494 23.68 15.6627 23.5415C15.7257 23.324 15.8804 23.0606 16.1268 22.7515C16.1575 22.7206 16.196 22.6665 16.2424 22.589C16.2888 22.5116 16.3274 22.4575 16.3581 22.4266C16.5431 22.1792 16.636 22.0087 16.637 21.9152L15.6462 22.91L15.5784 22.8391C15.8264 22.3741 16.0193 22.0878 16.1573 21.9801C16.3877 21.7488 16.6115 21.416 16.8288 20.9819C16.8598 20.9199 16.9296 20.7881 17.038 20.5866C17.1468 20.3539 17.2473 20.1913 17.3394 20.0988C17.5244 19.8514 17.6481 19.65 17.7104 19.4948C17.7418 19.4016 17.7728 19.3396 17.8035 19.3088C18.0026 19.1706 18.1039 18.9301 18.1073 18.5871C18.1988 18.5569 18.3291 18.457 18.4981 18.2874C18.6824 18.1023 18.8274 18.0493 18.9331 18.1284C18.9352 17.9101 19.0207 17.7318 19.1893 17.5933C19.2197 17.5936 19.2508 17.5316 19.2824 17.4072C19.2978 17.3918 19.3365 17.3221 19.3986 17.198C19.445 17.1206 19.5299 16.989 19.6534 16.8032C19.7475 16.5237 19.9166 16.3384 20.1608 16.2475C20.1912 16.2478 20.2218 16.2326 20.2525 16.2017C20.2832 16.1709 20.3138 16.1556 20.3442 16.156C20.3006 15.9528 20.3477 15.813 20.4853 15.7366C20.7605 15.5836 20.9143 15.4138 20.9466 15.2271L21.0157 15.1577C21.0618 15.1114 21.085 15.0727 21.0853 15.0415C21.1007 15.0261 21.1699 14.9411 21.2931 14.7866C21.4317 14.6166 21.5319 14.4851 21.5936 14.3923C21.6397 14.346 21.7091 14.2454 21.8019 14.0905C21.8947 13.9356 21.9566 13.8272 21.9877 13.7652C22.3422 13.2857 22.5433 12.9449 22.591 12.7428L22.6615 12.5331C23.1402 11.8055 23.3874 11.4185 23.403 11.3719C23.619 11.0624 23.7819 10.7446 23.8916 10.4184C23.9229 10.3252 23.985 10.2012 24.0778 10.0463C24.186 9.87596 24.2477 9.78309 24.2631 9.76767C24.2784 9.75225 24.3248 9.6748 24.4023 9.53533C24.4797 9.39587 24.5341 9.27953 24.5654 9.18633C24.5947 9.09926 24.64 9.00692 24.7012 8.90931C24.1063 9.01743 23.4988 9.16422 22.9436 9.3052C22.944 9.30437 22.9443 9.30353 22.9446 9.30267C22.945 9.30165 22.9454 9.30062 22.9458 9.29957C22.9462 9.29831 22.9467 9.29702 22.9471 9.29571ZM13.9744 11.4317C13.9722 11.5122 13.9696 11.6146 13.9666 11.7388C13.969 12.0103 13.9673 12.2167 13.9613 12.358C13.9438 12.4967 13.9118 12.7319 13.8653 13.0638C13.8187 13.3956 13.7881 13.6526 13.7735 13.8347C13.7821 13.8509 13.7777 13.8713 13.7604 13.8959C13.7431 13.9206 13.7271 14.0525 13.7124 14.2916C13.7152 14.335 13.7136 14.3988 13.7078 14.4831C13.699 14.581 13.6945 14.6584 13.6944 14.7154C13.6886 14.7997 13.6884 14.9137 13.6939 15.0575C13.6994 15.2014 13.705 15.3167 13.7106 15.4035L13.6968 15.978C13.7165 16.2248 13.7235 16.3619 13.7177 16.3891C13.7145 16.6308 13.7125 16.9797 13.7118 17.4359C13.7142 17.7074 13.731 18.0249 13.762 18.3883C13.7734 18.4479 13.7703 18.6041 13.7527 18.8568C13.7465 19.1121 13.7649 19.3088 13.8078 19.4467C13.8164 19.4629 13.8236 19.4859 13.8293 19.5157C13.8321 19.5591 13.8321 19.5876 13.8292 19.6012C13.8277 19.6844 13.8289 19.7841 13.8327 19.9002C13.8862 19.692 13.9482 19.4476 14.0186 19.167C14.0591 19.0708 14.0883 19.0049 14.1061 18.9693L14.1275 18.8562C14.1477 18.8081 14.1602 18.7715 14.1649 18.7463C14.2173 18.5872 14.2803 18.3716 14.3539 18.0994C14.4289 17.8797 14.4687 17.7572 14.4735 17.7321C14.5495 17.4474 14.6221 17.2401 14.6912 17.1105C14.7424 17.0163 14.8037 16.8395 14.875 16.5799C14.9654 16.3371 15.0987 15.9855 15.2748 15.5251C15.313 15.4414 15.3582 15.32 15.4105 15.1609C15.476 14.9914 15.5224 14.8637 15.5497 14.7779C15.6283 14.598 15.7343 14.3322 15.8675 13.9806C16.0116 13.6311 16.1152 13.3779 16.1783 13.221C16.3568 12.748 16.5401 12.3086 16.7283 11.9027C16.8271 11.6746 16.9969 11.3367 17.2376 10.8891C17.2709 10.8306 17.3156 10.7417 17.3716 10.6224C17.3902 10.5874 17.4076 10.555 17.4236 10.5252C17.0683 10.6254 16.6284 10.7512 16.1039 10.9024C15.4458 11.1074 14.8691 11.2518 14.3737 11.3354C14.2376 11.3642 14.1045 11.3963 13.9744 11.4317ZM17.4453 20.9184C17.3675 21.089 17.2755 21.166 17.1693 21.1492C17.2614 21.0567 17.3534 20.9797 17.4453 20.9184ZM15.4483 24.4512L15.4934 24.4984L15.5616 24.5226C15.5767 24.5383 15.584 24.5618 15.5837 24.593C15.553 24.6238 15.5224 24.6391 15.492 24.6387C15.5074 24.6233 15.4928 24.5608 15.4483 24.4512ZM19.733 17.9733C19.7333 17.9421 19.7261 17.9031 19.7113 17.8562C19.7418 17.8565 19.7646 17.8489 19.78 17.8335L19.733 17.9733ZM20.245 16.9499C20.2751 16.9815 20.2825 17.0049 20.2671 17.0203L20.2441 17.0435C20.214 17.012 20.1991 16.9806 20.1994 16.9495C20.2145 16.9652 20.2297 16.9654 20.245 16.9499ZM13.7388 24.95L13.6871 24.9385C13.6642 24.8763 13.6586 24.7895 13.6702 24.678C13.6819 24.5665 13.6863 24.4891 13.6835 24.4457L13.718 24.4534C13.7869 24.5829 13.837 24.6868 13.8685 24.7651C13.8052 24.8365 13.7619 24.8982 13.7388 24.95ZM13.413 23.6793C13.3153 23.6289 13.2536 23.4939 13.2281 23.2743C13.3058 23.2489 13.3589 23.2822 13.3876 23.3741L13.4392 23.4712C13.4621 23.5334 13.4663 23.57 13.4519 23.581C13.449 23.5946 13.436 23.6274 13.413 23.6793ZM13.1698 21.935C13.1611 21.9759 13.1696 22.0491 13.1953 22.1546C13.2326 22.2628 13.2324 22.3483 13.1949 22.4112C13.1059 22.32 13.0975 22.1613 13.1698 21.935ZM13.1466 22.978C13.1669 22.8827 13.2058 22.8415 13.2633 22.8543L13.2891 22.9029C13.2746 22.9709 13.2271 22.996 13.1466 22.978ZM13.8203 25.2463C13.8117 25.2302 13.8017 25.2208 13.7902 25.2182C13.7931 25.2046 13.8032 25.1855 13.8205 25.1608C13.8349 25.1498 13.8435 25.1374 13.8464 25.1238L13.8722 25.1724L13.8203 25.2463ZM13.3275 23.1468C13.3016 23.1553 13.2772 23.1569 13.2542 23.1518L13.2413 23.1275L13.2845 23.0944L13.3017 23.0982L13.3275 23.1468Z" fill="white"/>
<path d="M16.3798 24.9488C16.6716 24.6558 16.8868 24.4243 17.0254 24.2543C17.1176 24.1617 17.1488 24.0841 17.119 24.0215C17.1042 23.9745 17.0207 23.9658 16.8683 23.9954C16.6545 24.0866 16.5235 24.2645 16.4752 24.5289C16.4592 24.6067 16.4199 24.7388 16.3572 24.9252L16.3798 24.9488Z" fill="white"/>
<defs>
<filter id="filter0_d_1_707" x="0" y="0" width="40" height="40" filterUnits="userSpaceOnUse" color-interpolation-filters="sRGB">
<feFlood flood-opacity="0" result="BackgroundImageFix"/>
<feColorMatrix in="SourceAlpha" type="matrix" values="0 0 0 0 0 0 0 0 0 0 0 0 0 0 0 0 0 0 127 0" result="hardAlpha"/>
<feOffset dy="4"/>
<feGaussianBlur stdDeviation="2"/>
<feComposite in2="hardAlpha" operator="out"/>
<feColorMatrix type="matrix" values="0 0 0 0 0 0 0 0 0 0 0 0 0 0 0 0 0 0 0.25 0"/>
<feBlend mode="normal" in2="BackgroundImageFix" result="effect1_dropShadow_1_707"/>
<feBlend mode="normal" in="SourceGraphic" in2="effect1_dropShadow_1_707" result="shape"/>
</filter>
</defs>
</svg>
