<svg width="32" height="32" viewBox="0 0 32 32" fill="none" xmlns="http://www.w3.org/2000/svg">
<g clip-path="url(#clip0_1_1351)">
<path d="M16 32C24.8366 32 32 24.8366 32 16C32 7.16343 24.8366 0 16 0C7.16343 0 0 7.16343 0 16C0 24.8366 7.16343 32 16 32Z" fill="#D33AD6"/>
<path d="M20.7271 10H11.2723C9.53395 10 8.43212 11.8752 9.3067 13.3911L15.1418 23.5047C15.5226 24.1651 16.4769 24.1651 16.8576 23.5047L22.6939 13.3911C23.5673 11.8776 22.4655 10 20.7283 10H20.7271ZM15.1371 20.4718L13.8663 18.0124L10.8 12.5284C10.5977 12.1774 10.8476 11.7276 11.2712 11.7276H15.1359V20.473L15.1371 20.4718ZM21.1971 12.5272L18.132 18.0136L16.8612 20.4718V11.7264H20.7259C21.1495 11.7264 21.3994 12.1762 21.1971 12.5272Z" fill="white"/>
<g opacity="0.5">
<path d="M16 2.25C15.515 2.25 15.0357 2.27514 14.5632 2.32422C14.1512 2.36703 13.8519 2.73572 13.8947 3.14772C13.9376 3.55971 14.3062 3.859 14.7182 3.81619C15.1393 3.77245 15.5669 3.75 16 3.75C16.4331 3.75 16.8607 3.77245 17.2818 3.81619C17.6938 3.859 18.0624 3.55971 18.1053 3.14772C18.1481 2.73572 17.8488 2.36703 17.4368 2.32422C16.9643 2.27514 16.485 2.25 16 2.25Z" fill="white"/>
<path d="M11.0164 4.80599C11.3947 4.6373 11.5647 4.19387 11.396 3.81556C11.2273 3.43726 10.7838 3.26733 10.4055 3.43602C9.52282 3.82964 8.68943 4.31342 7.91703 4.87555C7.58212 5.11929 7.50821 5.58838 7.75195 5.92329C7.99569 6.2582 8.46478 6.3321 8.79969 6.08836C9.48811 5.58735 10.2305 5.15644 11.0164 4.80599Z" fill="white"/>
<path d="M21.5945 3.43602C21.2162 3.26733 20.7727 3.43726 20.604 3.81556C20.4353 4.19387 20.6053 4.6373 20.9836 4.80599C21.7695 5.15644 22.5119 5.58735 23.2003 6.08837C23.5352 6.3321 24.0043 6.2582 24.248 5.92329C24.4918 5.58838 24.4179 5.11929 24.083 4.87555C23.3106 4.31342 22.4772 3.82964 21.5945 3.43602Z" fill="white"/>
<path d="M6.08837 8.79969C6.3321 8.46478 6.2582 7.99569 5.92329 7.75195C5.58838 7.50821 5.11929 7.58212 4.87555 7.91703C4.31342 8.68942 3.82964 9.52282 3.43602 10.4055C3.26733 10.7838 3.43726 11.2273 3.81556 11.396C4.19387 11.5647 4.6373 11.3947 4.80599 11.0164C5.15644 10.2305 5.58735 9.4881 6.08837 8.79969Z" fill="white"/>
<path d="M27.1244 7.91703C26.8807 7.58212 26.4116 7.50821 26.0767 7.75195C25.7418 7.99569 25.6679 8.46478 25.9116 8.79969C26.4127 9.48811 26.8436 10.2305 27.194 11.0164C27.3627 11.3947 27.8061 11.5647 28.1844 11.396C28.5627 11.2273 28.7327 10.7838 28.564 10.4055C28.1704 9.52282 27.6866 8.68943 27.1244 7.91703Z" fill="white"/>
<path d="M3.81619 14.7182C3.859 14.3062 3.55971 13.9376 3.14772 13.8947C2.73572 13.8519 2.36703 14.1512 2.32422 14.5632C2.27514 15.0357 2.25 15.515 2.25 16C2.25 16.485 2.27514 16.9643 2.32422 17.4368C2.36703 17.8488 2.73572 18.1481 3.14772 18.1053C3.55971 18.0624 3.859 17.6938 3.81619 17.2818C3.77245 16.8607 3.75 16.4331 3.75 16C3.75 15.5669 3.77245 15.1393 3.81619 14.7182Z" fill="white"/>
<path d="M29.6758 14.5632C29.633 14.1512 29.2643 13.8519 28.8523 13.8947C28.4403 13.9376 28.141 14.3062 28.1838 14.7182C28.2276 15.1393 28.25 15.5669 28.25 16C28.25 16.4331 28.2276 16.8607 28.1838 17.2818C28.141 17.6938 28.4403 18.0624 28.8523 18.1053C29.2643 18.1481 29.633 17.8488 29.6758 17.4368C29.7249 16.9643 29.75 16.485 29.75 16C29.75 15.515 29.7249 15.0357 29.6758 14.5632Z" fill="white"/>
<path d="M4.80599 20.9836C4.6373 20.6053 4.19387 20.4353 3.81556 20.604C3.43726 20.7727 3.26733 21.2162 3.43602 21.5945C3.82964 22.4772 4.31342 23.3106 4.87555 24.083C5.11929 24.4179 5.58838 24.4918 5.92329 24.248C6.2582 24.0043 6.3321 23.5352 6.08836 23.2003C5.58735 22.5119 5.15644 21.7695 4.80599 20.9836Z" fill="white"/>
<path d="M28.564 21.5945C28.7327 21.2162 28.5627 20.7727 28.1844 20.604C27.8061 20.4353 27.3627 20.6053 27.194 20.9836C26.8436 21.7695 26.4127 22.5119 25.9116 23.2003C25.6679 23.5352 25.7418 24.0043 26.0767 24.248C26.4116 24.4918 26.8807 24.4179 27.1244 24.083C27.6866 23.3106 28.1704 22.4772 28.564 21.5945Z" fill="white"/>
<path d="M8.79969 25.9116C8.46478 25.6679 7.99569 25.7418 7.75195 26.0767C7.50821 26.4116 7.58212 26.8807 7.91703 27.1244C8.68942 27.6866 9.52282 28.1704 10.4055 28.564C10.7838 28.7327 11.2273 28.5627 11.396 28.1844C11.5647 27.8061 11.3947 27.3627 11.0164 27.194C10.2305 26.8436 9.4881 26.4127 8.79969 25.9116Z" fill="white"/>
<path d="M24.083 27.1244C24.4179 26.8807 24.4918 26.4116 24.248 26.0767C24.0043 25.7418 23.5352 25.6679 23.2003 25.9116C22.5119 26.4127 21.7695 26.8436 20.9836 27.194C20.6053 27.3627 20.4353 27.8061 20.604 28.1844C20.7727 28.5627 21.2162 28.7327 21.5945 28.564C22.4772 28.1704 23.3106 27.6866 24.083 27.1244Z" fill="white"/>
<path d="M14.7182 28.1838C14.3062 28.141 13.9376 28.4403 13.8947 28.8523C13.8519 29.2643 14.1512 29.633 14.5632 29.6758C15.0357 29.7249 15.515 29.75 16 29.75C16.485 29.75 16.9643 29.7249 17.4368 29.6758C17.8488 29.633 18.1481 29.2643 18.1053 28.8523C18.0624 28.4403 17.6938 28.141 17.2818 28.1838C16.8607 28.2276 16.4331 28.25 16 28.25C15.5669 28.25 15.1393 28.2276 14.7182 28.1838Z" fill="white"/>
</g>
</g>
<defs>
<clipPath id="clip0_1_1351">
<rect width="32" height="32" fill="white"/>
</clipPath>
</defs>
</svg>
